<svg xmlns="http://www.w3.org/2000/svg" version="1.1" xmlns:xlink="http://www.w3.org/1999/xlink" xmlns:svgjs="http://svgjs.dev/svgjs" width="1440" height="560" preserveAspectRatio="none" viewBox="0 0 1440 560"><g mask="url(&quot;#SvgjsMask1010&quot;)" fill="none"><path d="M417.19 32.97L441.28 32.97L441.28 57.06L417.19 57.06z" stroke="#037b0b"></path><path d="M558.13 201.62a13.41 13.41 0 1 0 22.68 14.31z" stroke="#e73635"></path><path d="M308.98 235.91L357.55 235.91L357.55 284.48L308.98 284.48z" stroke="#e73635"></path><path d="M1409.96 129.79L1460.1 129.79L1460.1 179.93L1409.96 179.93z" stroke="#037b0b"></path><path d="M983.1 549.45L1005.66 549.45L1005.66 572.01L983.1 572.01z" fill="#d3b714"></path><path d="M143.09 46.21L157.51 46.21L157.51 47.91L143.09 47.91z" stroke="#e73635"></path><path d="M846.15 119.74L870.28 119.74L870.28 160.86L846.15 160.86z" fill="#d3b714"></path><path d="M1134.33 13.33L1148.53 13.33L1148.53 25.73L1134.33 25.73z" stroke="#037b0b"></path><path d="M503.85 255.86a33.1 33.1 0 1 0-61.91-23.45z" fill="#e73635"></path><path d="M1236.04 311.61a33.15 33.15 0 1 0-63.26-19.86z" stroke="#e73635"></path><path d="M1402.68 469.09L1423.01 469.09L1423.01 524.99L1402.68 524.99z" stroke="#e73635"></path><path d="M1422.6 217.43L1475.67 217.43L1475.67 238.89L1422.6 238.89z" fill="#037b0b"></path><path d="M426.04 534.39L439.73 534.39L439.73 548.08L426.04 548.08z" fill="#037b0b"></path><path d="M91.31 172.24L130.25 172.24L130.25 211.18L91.31 211.18z" stroke="#037b0b"></path><path d="M72.86 116.32a9.1 9.1 0 1 0 1.81 18.11z" stroke="#e73635"></path><path d="M843.96 373.85 a4.35 4.35 0 1 0 8.7 0 a4.35 4.35 0 1 0 -8.7 0z" fill="#037b0b"></path><path d="M614.58 49.85 a2.67 2.67 0 1 0 5.34 0 a2.67 2.67 0 1 0 -5.34 0z" fill="#037b0b"></path><path d="M925.42 378.95L928.46 378.95L928.46 381.99L925.42 381.99z" fill="#e73635"></path><path d="M1419.58 454.83L1432.8 454.83L1432.8 468.05L1419.58 468.05z" stroke="#e73635"></path><path d="M906.85 419.69L921.58 419.69L921.58 434.42L906.85 434.42z" stroke="#037b0b"></path><path d="M95.64 350.44L135.76 350.44L135.76 390.56L95.64 390.56z" fill="#037b0b"></path><path d="M1347.3 424.63a37.1 37.1 0 1 0-74 5.4z" fill="#e73635"></path><path d="M975.27 267.89L988.76 267.89L988.76 278.04L975.27 278.04z" fill="#037b0b"></path><path d="M614.34 230.83a16.63 16.63 0 1 0-33.13-2.96z" fill="#e73635"></path><path d="M944.83 111.78L994.02 111.78L994.02 165.81L944.83 165.81z" fill="#037b0b"></path><path d="M252.25 233.51L281.08 233.51L281.08 262.34L252.25 262.34z" fill="#e73635"></path><path d="M253.34 543.45L255.43 543.45L255.43 598.76L253.34 598.76z" fill="#037b0b"></path><path d="M43.99 458.46L97.89 458.46L97.89 512.36L43.99 512.36z" fill="#037b0b"></path><path d="M1016.52 90.62L1055.38 90.62L1055.38 92.17L1016.52 92.17z" fill="#037b0b"></path><path d="M239.85 152.2a20.73 20.73 0 1 0 40.66 8.1z" stroke="#e73635"></path><path d="M1402.28 168.96 a22.35 22.35 0 1 0 44.7 0 a22.35 22.35 0 1 0 -44.7 0z" stroke="#e73635"></path><path d="M1367.77 154.47 a35.76 35.76 0 1 0 71.52 0 a35.76 35.76 0 1 0 -71.52 0z" stroke="#d3b714"></path><path d="M1167.7 255.69L1169.33 255.69L1169.33 258.72L1167.7 258.72z" fill="#037b0b"></path></g><defs><mask id="SvgjsMask1010"><rect width="1440" height="560" fill="#ffffff"></rect></mask></defs></svg>